<?xml version="1.0" encoding="utf-8"?>
<!-- Generator: Adobe Illustrator 21.1.0, SVG Export Plug-In . SVG Version: 6.00 Build 0)  -->
<svg version="1.1" id="Layer_1" xmlns="http://www.w3.org/2000/svg" xmlns:xlink="http://www.w3.org/1999/xlink" x="0px" y="0px"
	 viewBox="0 0 30 30" style="enable-background:new 0 0 30 30;" xml:space="preserve">
<style type="text/css">
	.st0{fill:#191919;}
</style>
<g>
	<path class="st0" d="M21.6,28c-2.5,1.1-4.7,1.5-7.7,1.5c-6.9,0-13-5-13-13.2c0-8.5,6.2-15.9,15.6-15.9c7.4,0,12.7,5.1,12.7,12.1
		c0,6.1-3.4,10-7.9,10c-2,0-3.4-1-3.6-3.2h-0.1c-1.3,2.1-3.2,3.2-5.4,3.2c-2.7,0-4.7-2-4.7-5.5c0-5.1,3.8-9.7,9.8-9.7
		c1.8,0,3.9,0.5,5,1L21,16.1c-0.4,2.5-0.1,3.6,1,3.6c1.8,0.1,4-2.2,4-7.1c0-5.5-3.5-9.6-10-9.6c-6.4,0-12,5-12,13
		c0,7,4.4,10.9,10.6,10.9c2.1,0,4.4-0.5,6.1-1.3L21.6,28z M17.9,10.8c-0.3-0.1-0.8-0.2-1.3-0.2c-2.8,0-4.9,2.7-4.9,5.9
		c0,1.6,0.7,2.6,2.1,2.6c1.5,0,3.2-2,3.5-4.4L17.9,10.8z"/>
</g>
</svg>
