<?xml version="1.0" encoding="utf-8"?>
<!-- Generator: Adobe Illustrator 21.1.0, SVG Export Plug-In . SVG Version: 6.00 Build 0)  -->
<svg version="1.1" id="Layer_1" xmlns="http://www.w3.org/2000/svg" xmlns:xlink="http://www.w3.org/1999/xlink" x="0px" y="0px"
	 viewBox="0 0 30 30" style="enable-background:new 0 0 30 30;" xml:space="preserve">
<style type="text/css">
	.st0{fill:#191919;}
</style>
<path class="st0" d="M21.6,2.7H8.4c-4.5,0-8.2,4-8.2,9v0.2c0,5,3.7,9,8.2,9h6.8l4.4,6.3c0,0,0.2-4.3,0.1-6.3h1.9c4.5,0,8.2-4,8.2-9
	v-0.2C29.8,6.7,26.1,2.7,21.6,2.7z M9.8,13.9c-1,0-1.8-0.8-1.8-1.8c0-1,0.8-1.8,1.8-1.8s1.8,0.8,1.8,1.8
	C11.6,13.1,10.8,13.9,9.8,13.9z M15,13.9c-1,0-1.8-0.8-1.8-1.8c0-1,0.8-1.8,1.8-1.8c1,0,1.8,0.8,1.8,1.8C16.8,13.1,16,13.9,15,13.9z
	 M20.2,13.9c-1,0-1.8-0.8-1.8-1.8c0-1,0.8-1.8,1.8-1.8c1,0,1.8,0.8,1.8,1.8C22,13.1,21.2,13.9,20.2,13.9z"/>
</svg>
